<?xml version="1.0" standalone="no"?>
<!DOCTYPE svg PUBLIC "-//W3C//DTD SVG 20010904//EN"
 "http://www.w3.org/TR/2001/REC-SVG-20010904/DTD/svg10.dtd">
<svg version="1.0" xmlns="http://www.w3.org/2000/svg"
 width="382.000000pt" height="132.000000pt" viewBox="0 0 382.000000 132.000000"
 preserveAspectRatio="xMidYMid meet">
<metadata>
Created by potrace 1.16, written by Peter Selinger 2001-2019
</metadata>
<g transform="translate(0.000000,132.000000) scale(0.100000,-0.100000)"
fill="#000000" stroke="none">
<path d="M1941 1283 c0 -16 5 -53 9 -83 5 -30 12 -88 14 -129 3 -40 11 -80 18
-89 10 -12 10 -14 1 -8 -16 9 -16 8 -2 -73 11 -73 4 -89 -32 -71 -19 10 -22
10 -12 0 6 -7 10 -18 9 -24 -2 -6 -1 -8 1 -5 2 3 14 4 26 2 42 -8 46 12 31
147 -8 69 -17 150 -19 180 -2 30 -7 78 -10 105 -4 43 -3 46 6 22 12 -31 29
-27 28 6 0 21 -1 21 -9 2 -6 -15 -9 -16 -9 -4 -1 16 -31 49 -44 49 -4 0 -7
-12 -6 -27z"/>
<path d="M2020 1301 c0 -5 9 -11 20 -14 11 -3 20 -13 20 -24 0 -10 8 -27 16
-38 15 -19 15 -19 8 10 -6 28 -5 29 8 11 12 -16 22 -18 63 -12 26 4 53 10 60
12 13 5 85 -51 85 -67 0 -4 -8 -6 -17 -3 -14 5 -15 4 -4 -4 11 -8 10 -11 -5
-15 -16 -4 -16 -5 4 -6 12 0 22 5 22 12 1 14 30 -22 30 -37 0 -5 -6 -2 -13 9
-10 12 -16 14 -21 7 -4 -7 -16 -12 -27 -12 -15 0 -19 6 -17 23 2 12 7 29 12
37 5 8 6 12 1 8 -5 -5 -14 1 -22 12 -8 11 -17 20 -21 20 -5 0 -4 -42 0 -92 7
-75 12 -97 30 -113 11 -11 17 -14 14 -7 -4 7 -2 20 6 29 11 14 11 16 -2 8 -13
-8 -13 -7 -1 9 8 10 23 15 33 13 10 -3 15 -1 12 5 -3 5 -16 7 -28 4 -16 -4
-23 -1 -23 10 0 10 7 14 19 11 10 -3 16 -1 12 4 -11 19 26 8 39 -12 10 -13 17
-17 22 -9 7 12 -36 83 -88 144 l-34 39 -64 -16 c-48 -12 -65 -13 -71 -4 -11
17 -10 37 1 37 5 0 11 -6 14 -12 3 -7 4 -3 4 10 -1 20 -6 22 -49 22 -26 0 -48
-4 -48 -9z"/>
<path d="M1344 1103 c-32 -37 -51 -64 -41 -60 16 6 17 -2 12 -106 -17 -402
-16 -385 -38 -414 -19 -24 -19 -26 -3 -20 10 4 48 8 84 9 l67 1 -60 7 c-33 4
-52 7 -42 8 10 1 16 6 13 10 -3 5 12 7 32 6 20 -1 31 0 24 3 -9 4 -10 9 -2 18
8 10 3 19 -18 37 -16 13 -31 36 -34 51 -6 31 0 33 28 12 29 -22 38 -18 20 10
-15 23 -15 25 0 25 14 0 14 2 3 16 -10 13 -10 17 2 26 12 8 11 9 -2 5 -9 -3
-22 0 -29 6 -10 9 -11 9 -6 0 4 -7 2 -13 -3 -13 -6 0 -11 7 -11 16 0 12 7 14
30 9 25 -6 30 -4 30 13 0 11 -7 23 -16 26 -24 9 -31 7 -11 -5 22 -13 13 -29
-13 -22 -17 4 -19 12 -16 62 2 31 4 91 5 133 l1 77 64 -6 c42 -4 66 -2 70 6 4
6 13 11 19 11 7 0 1 -9 -13 -19 -23 -19 -24 -21 -11 -70 7 -28 10 -56 6 -63
-4 -7 1 -4 10 7 15 19 15 58 -2 100 -3 10 2 13 18 10 16 -3 19 -1 12 6 -6 6
-9 26 -6 45 3 19 3 34 1 34 -2 0 -19 -11 -38 -25 -39 -29 -100 -34 -120 -10
-11 13 -10 15 1 10 19 -6 32 4 47 38 30 69 9 62 -64 -20z"/>
<path d="M456 1133 c5 -10 10 -103 12 -207 2 -130 7 -195 15 -205 9 -12 9 -13
0 -7 -9 5 -13 0 -13 -14 0 -27 -111 -100 -153 -100 -25 0 -28 -2 -17 -15 9
-11 10 -18 1 -29 -18 -21 141 60 171 88 l28 25 0 212 c1 205 0 212 -21 235
-18 19 -19 24 -7 24 9 0 18 -7 22 -15 3 -8 14 -15 24 -15 26 0 53 -32 42 -50
-5 -8 -6 -19 -2 -25 10 -16 11 -34 2 -40 -11 -7 -2 -35 10 -35 5 0 8 26 8 58
-1 43 -6 63 -22 80 -40 45 -118 72 -100 35z"/>
<path d="M2784 965 c4 -16 7 -63 5 -105 -1 -41 -2 -172 -3 -290 l-1 -214 60
-38 c57 -35 114 -55 70 -24 -11 7 -23 13 -27 12 -13 -2 -78 68 -78 84 0 9 -6
22 -12 29 -11 11 -10 13 0 7 10 -6 12 48 12 268 -1 239 -3 276 -17 288 -15 12
-15 10 -9 -17z"/>
<path d="M833 929 c15 -9 17 -30 17 -211 0 -178 2 -204 18 -221 16 -19 16 -19
-5 -13 -14 5 -23 3 -23 -4 0 -11 -37 -10 -57 3 -9 6 -11 3 -7 -7 4 -9 18 -16
34 -16 23 0 29 -5 34 -30 4 -23 11 -30 28 -30 16 0 19 3 10 9 -10 6 -10 10 1
19 10 9 13 36 10 114 -2 57 -3 117 -2 133 3 67 -13 235 -24 253 -5 6 -18 12
-30 12 -20 -1 -20 -2 -4 -11z"/>
<path d="M2999 896 c-2 -2 -3 -134 -1 -293 l3 -289 58 -32 c32 -17 60 -29 64
-26 3 3 24 -4 47 -16 23 -12 49 -19 57 -16 21 8 7 25 -17 19 -10 -3 -34 4 -52
15 -18 11 -42 20 -53 19 -11 -1 -20 4 -21 13 0 8 -2 20 -4 25 -1 6 -1 21 0 34
2 23 -14 41 -35 41 -5 -1 -1 -7 9 -15 11 -8 15 -15 9 -15 -13 0 -26 18 -29 37
-2 10 3 10 18 2 21 -11 31 -7 34 17 2 11 -3 13 -18 8 -14 -4 -18 -2 -14 5 5 7
1 9 -8 5 -9 -3 -16 -1 -16 5 0 6 15 11 33 12 27 0 29 2 12 9 l-20 9 20 0 c17
1 17 3 5 11 -10 6 -11 10 -2 10 7 0 12 13 12 31 l0 30 -32 -22 -33 -22 26 29
c25 28 46 80 28 68 -12 -7 -11 2 2 29 9 20 9 20 -4 5 -12 -16 -14 -14 -12 20
2 20 -2 43 -8 50 -6 8 -12 21 -13 30 -1 10 -5 35 -9 57 -3 22 -8 55 -11 73 -4
29 -13 39 -25 28z"/>
<path d="M2406 825 c-3 -9 -16 -20 -28 -25 -15 -6 -17 -9 -7 -9 20 -1 29 -64
29 -207 l0 -101 48 -45 c64 -60 86 -72 112 -58 11 6 26 8 32 4 7 -5 8 -3 3 6
-6 10 -4 12 11 6 10 -4 15 -4 11 0 -4 4 -1 14 5 22 20 23 24 225 6 240 -13 10
-15 -3 -15 -96 0 -114 -9 -146 -44 -157 -30 -10 -85 20 -99 55 -7 16 -17 28
-23 27 -13 -2 -25 78 -25 158 l1 50 7 -40 c5 -30 8 -13 9 61 1 76 -3 104 -13
113 -11 9 -15 8 -20 -4z"/>
<path d="M1464 811 c3 -5 26 -87 50 -182 l45 -174 -42 -83 c-50 -98 -54 -100
-182 -84 -168 21 -165 20 -146 56 22 41 6 55 -17 16 -12 -19 -22 -38 -22 -42
0 -6 35 -19 60 -23 3 0 15 -6 27 -13 12 -6 29 -9 39 -5 10 3 15 2 12 -3 -4 -5
36 -9 95 -9 l100 0 52 86 c50 83 74 132 59 116 -5 -4 -22 43 -39 105 -22 78
-28 115 -21 120 8 5 7 8 -1 8 -13 0 -38 78 -29 88 3 3 -2 11 -12 18 -20 15
-36 18 -28 5z"/>
<path d="M3190 739 c0 -46 -3 -113 -6 -149 l-6 -65 56 -62 c52 -57 60 -62 94
-59 29 3 42 11 60 36 24 35 28 50 13 50 -5 0 -12 -13 -16 -29 -10 -45 -29 -57
-54 -32 -27 27 -50 28 -26 1 11 -12 13 -20 6 -20 -14 0 -41 59 -41 89 0 11 -5
23 -12 27 -7 4 -8 3 -4 -4 4 -7 2 -12 -5 -12 -8 0 -8 -5 2 -17 7 -10 1 -7 -13
6 -22 19 -27 32 -26 73 0 42 3 51 23 58 13 5 26 14 31 21 5 8 3 10 -7 4 -12
-7 -12 -6 -1 8 8 9 12 26 10 39 -3 22 -4 21 -20 -8 -10 -17 -15 -34 -12 -36 3
-3 -2 -8 -10 -11 -12 -5 -15 0 -14 18 1 13 6 23 10 22 4 -1 14 9 21 23 16 31
53 37 116 17 25 -8 57 -18 71 -22 l25 -7 -26 20 c-24 20 -115 40 -149 33 -8
-1 -25 -12 -37 -24 -31 -28 -29 -12 2 25 38 44 32 66 -8 31 -11 -10 -18 -13
-15 -8 3 6 -3 19 -13 29 -19 19 -19 18 -19 -65z"/>
<path d="M640 740 c-25 -4 -49 -5 -55 -2 -5 3 -4 -1 2 -10 11 -12 23 -13 69
-6 72 11 83 7 55 -19 -21 -19 -21 -22 -5 -31 16 -9 16 -11 0 -33 -17 -22 -17
-22 -12 -3 5 15 1 24 -9 28 -23 8 -19 -82 8 -173 29 -97 50 -108 31 -16 -8 37
-12 81 -9 98 11 69 17 87 26 81 5 -3 9 7 9 23 0 37 9 47 50 60 32 10 29 11
-40 11 -41 0 -95 -4 -120 -8z"/>
<path d="M455 600 c-16 -7 -16 -9 -4 -9 26 -1 29 -21 29 -200 0 -177 -6 -214
-47 -268 l-24 -33 103 2 103 2 -80 6 c-44 3 -73 7 -65 8 8 1 16 13 16 28 3 38
11 40 39 5 15 -17 34 -31 43 -31 14 0 14 3 -4 18 -54 45 -58 64 -60 269 -1
105 -5 196 -8 202 -8 13 -14 13 -41 1z"/>
</g>
</svg>
